<?xml version="1.0" encoding="UTF-8"?>
<svg viewBox="0.26 0.68 6.21 6.21" version="1.1" xmlns="http://www.w3.org/2000/svg" xmlns:xlink="http://www.w3.org/1999/xlink">
    <title>line-10-1</title>
    <g id="Page-1" stroke="none" stroke-width="1" fill="none" fill-rule="evenodd">
        <g id="best" transform="translate(-209.000000, -47.000000)" fill="#BED12C" fill-rule="nonzero">
            <g id="viewport-20210404113105293" transform="translate(0.026131, 0.311539)">
                <path d="M212.335728,53.5780644 C210.64156,53.5780644 209.229753,52.2015528 209.229753,50.4720896 C209.229753,48.7426264 210.606265,47.3661149 212.335728,47.3661149 C214.029896,47.3661149 215.441703,48.7426264 215.441703,50.4720896 C215.441703,52.1662577 214.100486,53.5780644 212.335728,53.5780644 Z M210.465084,48.8838071 L210.288608,49.4132346 L210.853331,49.4132346 L210.853331,52.025077 L211.453349,52.025077 L211.453349,48.8838071 L210.465084,48.8838071 L210.465084,48.8838071 Z M213.218107,52.0603722 C213.994601,52.0603722 214.453438,51.4250591 214.453438,50.4014993 C214.453438,49.4132346 213.994601,48.7779216 213.218107,48.7779216 C212.441614,48.7779216 211.982776,49.4132346 211.982776,50.4014993 C211.982776,51.4603543 212.512204,52.0603722 213.218107,52.0603722 Z M213.218107,51.5309446 C212.794565,51.5309446 212.582794,51.1074026 212.582794,50.4367945 C212.582794,49.7661863 212.82986,49.3426443 213.218107,49.3426443 C213.641649,49.3426443 213.85342,49.7661863 213.85342,50.4367945 C213.85342,51.1074026 213.71224,51.5309446 213.218107,51.5309446 Z" id="line-10-1"></path>
            </g>
        </g>
    </g>
</svg>