<?xml version="1.0" encoding="UTF-8"?>
<svg viewBox="0.24 0.73 5.44 5.44" version="1.1" xmlns="http://www.w3.org/2000/svg" xmlns:xlink="http://www.w3.org/1999/xlink">
    <title>line-11-1</title>
    <g id="Page-1" stroke="none" stroke-width="1" fill="none" fill-rule="evenodd">
        <g id="best" transform="translate(-231.000000, -199.000000)" fill-rule="nonzero">
            <g id="viewport-20210404113105293" transform="translate(0.026131, 0.311539)">
                <g id="line-11-1" transform="translate(231.183348, 199.417697)">
                    <path d="M2.75302307,0 C1.27062603,0 0.0352951676,1.2000357 0.0352951676,2.7177279 C0.0352951676,4.23542011 1.23533086,5.43545581 2.75302307,5.43545581 C4.23542011,5.43545581 5.47075097,4.23542011 5.47075097,2.7177279 C5.43545581,1.23533086 4.27071528,0 2.75302307,0 Z M2.40007139,3.9177636 L1.90593905,3.9177636 L1.90593905,1.83534871 L1.48239704,1.83534871 L1.62357771,1.44710187 L2.40007139,1.44710187 L2.40007139,3.9177636 Z M3.9177636,3.9177636 L3.38833609,3.9177636 L3.38833609,1.83534871 L2.96479408,1.83534871 L3.10597475,1.44710187 L3.9177636,1.44710187 L3.9177636,3.9177636 L3.9177636,3.9177636 Z" id="Shape" fill="#88CDCF"></path>
                    <polygon id="Path" fill="#FFFFFF" points="2.96479408 1.83534871 3.38833609 1.83534871 3.38833609 3.9177636 3.9177636 3.9177636 3.9177636 1.44710187 3.10597475 1.44710187"></polygon>
                    <polygon id="Path" fill="#FFFFFF" points="1.48239704 1.83534871 1.90593905 1.83534871 1.90593905 3.9177636 2.40007139 3.9177636 2.40007139 1.44710187 1.62357771 1.44710187"></polygon>
                </g>
            </g>
        </g>
    </g>
</svg>