<?xml version="1.0" encoding="UTF-8"?>
<svg viewBox="0.65 0.42 6.21 6.21" version="1.1" xmlns="http://www.w3.org/2000/svg" xmlns:xlink="http://www.w3.org/1999/xlink">
    <title>line-12-1</title>
    <g id="Page-1" stroke="none" stroke-width="1" fill="none" fill-rule="evenodd">
        <g id="best" transform="translate(-154.000000, -637.000000)" fill="#BAC8E8" fill-rule="nonzero">
            <g id="viewport-20210404113105293" transform="translate(0.026131, 0.311539)">
                <path d="M157.734104,643.325019 C156.004641,643.325019 154.628129,641.948508 154.628129,640.219044 C154.628129,638.489581 156.004641,637.11307 157.734104,637.11307 C159.463567,637.11307 160.840079,638.524876 160.840079,640.219044 C160.840079,641.913213 159.428272,643.325019 157.734104,643.325019 Z M155.79287,638.595467 L155.616394,639.124894 L156.181116,639.124894 L156.181116,641.772032 L156.781134,641.772032 L156.781134,638.595467 L155.79287,638.595467 L155.79287,638.595467 Z M159.534157,641.807327 L159.710633,641.277899 L158.263531,641.277899 L158.263531,641.277899 L158.828254,640.748472 C159.392977,640.25434 159.604748,639.936683 159.604748,639.513141 C159.604748,639.019009 159.216501,638.595467 158.510598,638.595467 C158.087056,638.595467 157.663514,638.807238 157.345857,639.089599 L157.734104,639.477846 C157.945875,639.266075 158.192941,639.124894 158.475302,639.124894 C158.757664,639.124894 159.00473,639.30137 159.00473,639.583731 C159.00473,639.830798 158.898844,639.971978 158.298827,640.571996 L157.522333,641.383785 L157.522333,641.807327 L159.534157,641.807327 L159.534157,641.807327 Z" id="line-12-1"></path>
            </g>
        </g>
    </g>
</svg>