<?xml version="1.0" encoding="UTF-8"?>
<svg viewBox="2.57 0.83 6.04 6.04" version="1.1" xmlns="http://www.w3.org/2000/svg" xmlns:xlink="http://www.w3.org/1999/xlink">
    <title>line-14-2</title>
    <g id="Page-1" stroke="none" stroke-width="1" fill="none" fill-rule="evenodd">
        <g id="best" transform="translate(-135.000000, -380.000000)">
            <g id="viewport-20210404113105293" transform="translate(0.026131, 0.311539)">
                <g id="line-14-2" transform="translate(135.886395, 380.481906)">
                    <path d="M6.21194949,1.48239704 C6.00017849,1.27062603 5.78840748,1.12944536 5.50604614,1.02355986 C5.2236848,0.917674357 4.94132346,0.847084022 4.65896212,0.847084022 C4.37660078,0.847084022 4.09423944,0.917674357 3.8118781,1.02355986 C3.56481192,1.12944536 3.31774575,1.3059212 3.10597475,1.48239704 C2.89420374,1.69416804 2.75302307,1.90593905 2.64713757,2.18830039 C2.54125206,2.47066173 2.47066173,2.75302307 2.47066173,3.03538441 C2.47066173,3.31774575 2.54125206,3.60010709 2.64713757,3.88246843 C2.75302307,4.12953461 2.92949891,4.37660078 3.10597475,4.58837178 C3.31774575,4.80014279 3.52951676,4.94132346 3.8118781,5.04720896 C4.09423944,5.15309446 4.37660078,5.2236848 4.65896212,5.2236848 C4.94132346,5.2236848 5.2236848,5.15309446 5.50604614,5.04720896 C5.75311231,4.94132346 6.00017849,4.76484762 6.21194949,4.58837178 C6.4237205,4.37660078 6.56490117,4.16482977 6.67078667,3.88246843 C6.77667217,3.60010709 6.84726251,3.31774575 6.84726251,3.03538441 C6.84726251,2.75302307 6.77667217,2.47066173 6.67078667,2.18830039 C6.56490117,1.94123422 6.38842533,1.69416804 6.21194949,1.48239704 Z M3.95305877,4.23542011 L3.49422159,4.23542011 L3.49422159,2.18830039 L3.03538441,2.18830039 L3.21186025,1.76475838 L3.95305877,1.76475838 L3.95305877,4.23542011 L3.95305877,4.23542011 Z M6.24724466,3.67069743 L6.00017849,3.67069743 L6.00017849,4.23542011 L5.54134131,4.23542011 L5.54134131,3.67069743 L4.37660078,3.67069743 L4.37660078,3.31774575 L5.04720896,1.76475838 L5.54134131,1.76475838 L4.87073312,3.28245058 L5.54134131,3.28245058 L5.54134131,2.64713757 L6.00017849,2.64713757 L6.00017849,3.28245058 L6.38842533,3.28245058 L6.24724466,3.67069743 Z" id="Shape"></path>
                    <path d="M6.6354915,1.05885503 C6.38842533,0.811788854 6.07076882,0.600017849 5.75311231,0.458837178 C5.40016064,0.317656508 5.01191379,0.247066173 4.65896212,0.247066173 C4.27071528,0.247066173 3.9177636,0.317656508 3.56481192,0.458837178 C3.24715542,0.600017849 2.92949891,0.811788854 2.68243273,1.05885503 C2.43536656,1.3059212 2.22359556,1.62357771 2.08241489,1.94123422 C1.94123422,2.29418589 1.87064388,2.64713757 1.87064388,3.03538441 C1.87064388,3.42363125 1.94123422,3.77658293 2.08241489,4.12953461 C2.22359556,4.44719111 2.43536656,4.76484762 2.68243273,5.01191379 C2.92949891,5.25897997 3.24715542,5.47075097 3.56481192,5.61193164 C3.9177636,5.75311231 4.27071528,5.82370265 4.65896212,5.82370265 C5.04720896,5.82370265 5.40016064,5.75311231 5.75311231,5.61193164 C6.07076882,5.47075097 6.38842533,5.25897997 6.6354915,5.01191379 C6.88255768,4.76484762 7.09432868,4.44719111 7.23550935,4.12953461 C7.37669002,3.77658293 7.44728036,3.42363125 7.44728036,3.03538441 C7.44728036,2.64713757 7.37669002,2.29418589 7.23550935,1.94123422 C7.09432868,1.62357771 6.88255768,1.3059212 6.6354915,1.05885503 Z M6.91785284,3.98835393 C6.81196734,4.27071528 6.6354915,4.55307662 6.38842533,4.76484762 C6.17665432,4.97661863 5.89429298,5.15309446 5.61193164,5.29427513 C5.29427513,5.40016064 4.97661863,5.47075097 4.65896212,5.47075097 C4.34130561,5.47075097 4.0236491,5.40016064 3.70599259,5.29427513 C3.42363125,5.18838963 3.14126991,5.01191379 2.92949891,4.76484762 C2.7177279,4.55307662 2.54125206,4.27071528 2.40007139,3.98835393 C2.25889072,3.70599259 2.22359556,3.35304092 2.22359556,3.03538441 C2.22359556,2.7177279 2.29418589,2.40007139 2.40007139,2.08241489 C2.5059569,1.80005355 2.68243273,1.51769221 2.92949891,1.3059212 C3.14126991,1.09415019 3.42363125,0.917674357 3.70599259,0.776493686 C3.98835393,0.635313016 4.34130561,0.600017849 4.65896212,0.600017849 C4.97661863,0.600017849 5.29427513,0.670608184 5.61193164,0.776493686 C5.89429298,0.882379189 6.17665432,1.05885503 6.38842533,1.3059212 C6.60019633,1.51769221 6.77667217,1.80005355 6.91785284,2.08241489 C7.05903351,2.36477623 7.09432868,2.7177279 7.09432868,3.03538441 C7.09432868,3.35304092 7.02373835,3.67069743 6.91785284,3.98835393 Z" id="Shape"></path>
                    <path d="M7.44728036,1.87064388 C7.30609969,1.51769221 7.09432868,1.2000357 6.81196734,0.917674357 C6.529606,0.670608184 6.21194949,0.423542011 5.85899782,0.282361341 C5.47075097,0.105885503 5.08250413,0.0352951676 4.65896212,0.0352951676 C4.27071528,0.0352951676 3.88246843,0.14118067 3.49422159,0.282361341 C3.14126991,0.423542011 2.82361341,0.635313016 2.54125206,0.917674357 C2.29418589,1.2000357 2.04711972,1.51769221 1.90593905,1.87064388 C1.72946321,2.22359556 1.65887288,2.6118424 1.65887288,3.03538441 C1.65887288,3.45892642 1.76475838,3.84717326 1.90593905,4.23542011 C2.04711972,4.58837178 2.25889072,4.90602829 2.54125206,5.18838963 C2.82361341,5.43545581 3.14126991,5.68252198 3.49422159,5.82370265 C3.84717326,6.00017849 4.23542011,6.07076882 4.65896212,6.07076882 C5.04720896,6.07076882 5.47075097,6.00017849 5.85899782,5.82370265 C6.21194949,5.68252198 6.529606,5.47075097 6.81196734,5.18838963 C7.05903351,4.90602829 7.30609969,4.58837178 7.44728036,4.23542011 C7.62375619,3.84717326 7.69434653,3.45892642 7.69434653,3.03538441 C7.69434653,2.64713757 7.58846103,2.25889072 7.44728036,1.87064388 Z M7.23550935,4.12953461 C7.09432868,4.44719111 6.88255768,4.76484762 6.6354915,5.01191379 C6.38842533,5.25897997 6.07076882,5.47075097 5.75311231,5.61193164 C5.40016064,5.75311231 5.04720896,5.82370265 4.65896212,5.82370265 C4.27071528,5.82370265 3.9177636,5.75311231 3.56481192,5.61193164 C3.24715542,5.47075097 2.92949891,5.25897997 2.68243273,5.01191379 C2.43536656,4.76484762 2.22359556,4.44719111 2.08241489,4.12953461 C1.94123422,3.77658293 1.87064388,3.42363125 1.87064388,3.03538441 C1.87064388,2.64713757 1.94123422,2.29418589 2.08241489,1.94123422 C2.22359556,1.62357771 2.43536656,1.3059212 2.68243273,1.05885503 C2.92949891,0.811788854 3.24715542,0.600017849 3.56481192,0.458837178 C3.9177636,0.317656508 4.27071528,0.247066173 4.65896212,0.247066173 C5.01191379,0.247066173 5.40016064,0.317656508 5.75311231,0.458837178 C6.07076882,0.600017849 6.38842533,0.811788854 6.6354915,1.05885503 C6.88255768,1.3059212 7.09432868,1.62357771 7.23550935,1.94123422 C7.37669002,2.29418589 7.44728036,2.64713757 7.44728036,3.03538441 C7.44728036,3.42363125 7.37669002,3.77658293 7.23550935,4.12953461 Z" id="Shape" fill="#E32213" fill-rule="nonzero"></path>
                    <path d="M6.38842533,1.3059212 C6.17665432,1.05885503 5.89429298,0.882379189 5.61193164,0.776493686 C5.29427513,0.670608184 4.97661863,0.600017849 4.65896212,0.600017849 C4.34130561,0.600017849 3.98835393,0.635313016 3.70599259,0.776493686 C3.42363125,0.917674357 3.14126991,1.09415019 2.92949891,1.3059212 C2.68243273,1.51769221 2.5059569,1.80005355 2.40007139,2.08241489 C2.29418589,2.40007139 2.22359556,2.7177279 2.22359556,3.03538441 C2.22359556,3.35304092 2.25889072,3.70599259 2.40007139,3.98835393 C2.54125206,4.27071528 2.7177279,4.55307662 2.92949891,4.76484762 C3.14126991,5.01191379 3.42363125,5.18838963 3.70599259,5.29427513 C4.0236491,5.40016064 4.34130561,5.47075097 4.65896212,5.47075097 C4.97661863,5.47075097 5.29427513,5.40016064 5.61193164,5.29427513 C5.89429298,5.15309446 6.17665432,4.97661863 6.38842533,4.76484762 C6.6354915,4.55307662 6.81196734,4.27071528 6.91785284,3.98835393 C7.02373835,3.67069743 7.09432868,3.35304092 7.09432868,3.03538441 C7.09432868,2.7177279 7.05903351,2.36477623 6.91785284,2.08241489 C6.77667217,1.80005355 6.60019633,1.51769221 6.38842533,1.3059212 Z M6.67078667,3.88246843 C6.56490117,4.16482977 6.4237205,4.37660078 6.21194949,4.58837178 C6.00017849,4.76484762 5.75311231,4.94132346 5.50604614,5.04720896 C5.2236848,5.15309446 4.94132346,5.2236848 4.65896212,5.2236848 C4.37660078,5.2236848 4.09423944,5.15309446 3.8118781,5.04720896 C3.52951676,4.94132346 3.31774575,4.80014279 3.10597475,4.58837178 C2.92949891,4.37660078 2.75302307,4.12953461 2.64713757,3.88246843 C2.54125206,3.60010709 2.47066173,3.31774575 2.47066173,3.03538441 C2.47066173,2.75302307 2.54125206,2.47066173 2.64713757,2.18830039 C2.75302307,1.90593905 2.89420374,1.69416804 3.10597475,1.48239704 C3.31774575,1.3059212 3.56481192,1.12944536 3.8118781,1.02355986 C4.09423944,0.917674357 4.37660078,0.847084022 4.65896212,0.847084022 C4.94132346,0.847084022 5.2236848,0.917674357 5.50604614,1.02355986 C5.78840748,1.12944536 6.00017849,1.27062603 6.21194949,1.48239704 C6.38842533,1.69416804 6.56490117,1.94123422 6.67078667,2.18830039 C6.77667217,2.47066173 6.84726251,2.75302307 6.84726251,3.03538441 C6.84726251,3.31774575 6.77667217,3.60010709 6.67078667,3.88246843 Z" id="Shape" fill="#E32213" fill-rule="nonzero"></path>
                    <polygon id="Path" fill="#1D1D1B" fill-rule="nonzero" points="3.03538441 2.18830039 3.49422159 2.18830039 3.49422159 4.23542011 3.95305877 4.23542011 3.95305877 1.76475838 3.21186025 1.76475838"></polygon>
                    <polygon id="Path" fill="#1D1D1B" fill-rule="nonzero" points="6.00017849 2.64713757 5.54134131 2.64713757 5.54134131 3.28245058 4.87073312 3.28245058 5.54134131 1.76475838 5.04720896 1.76475838 4.37660078 3.31774575 4.37660078 3.67069743 5.54134131 3.67069743 5.54134131 4.23542011 6.00017849 4.23542011 6.00017849 3.67069743 6.24724466 3.67069743 6.38842533 3.28245058 6.00017849 3.28245058"></polygon>
                    
                </g>
            </g>
        </g>
    </g>
</svg>