<?xml version="1.0" encoding="UTF-8"?>
<svg viewBox="0.65 0.75 6.21 6.21" version="1.1" xmlns="http://www.w3.org/2000/svg" xmlns:xlink="http://www.w3.org/1999/xlink">
    <title>line-15-1</title>
    <g id="Page-1" stroke="none" stroke-width="1" fill="none" fill-rule="evenodd">
        <g id="best" transform="translate(-491.000000, -606.000000)" fill="#D68AB1" fill-rule="nonzero">
            <g id="viewport-20210404113105293" transform="translate(0.026131, 0.311539)">
                <path d="M495.155906,609.194592 L495.155906,609.194592 C495.332382,609.124002 495.544153,609.053412 495.720628,609.053412 C496.250056,609.053412 496.779483,609.406363 496.779483,610.076971 C496.779483,610.641694 496.320646,611.171122 495.544153,611.171122 C495.120611,611.171122 494.697069,610.994646 494.414707,610.712284 L494.802954,610.324038 C495.014725,610.535809 495.261791,610.606399 495.508857,610.606399 C495.861809,610.606399 496.108875,610.394628 496.108875,610.076971 C496.108875,609.79461 495.897104,609.582839 495.508857,609.582839 C495.367677,609.582839 495.155906,609.653429 495.014725,609.759315 L494.555888,609.72402 L494.626478,607.959261 L496.638303,607.959261 L496.461827,608.488689 L495.155906,608.488689 L495.155906,609.194592 Z M493.779394,611.135826 L493.179376,611.135826 L493.179376,608.488689 L492.614654,608.488689 L492.79113,607.959261 L493.779394,607.959261 L493.779394,611.135826 L493.779394,611.135826 Z M497.838339,609.547544 C497.838339,607.818081 496.461827,606.441569 494.732364,606.441569 C493.002901,606.441569 491.626389,607.818081 491.626389,609.547544 C491.626389,611.277007 493.002901,612.653519 494.732364,612.653519 C496.461827,612.653519 497.838339,611.277007 497.838339,609.547544" id="line-15-1"></path>
            </g>
        </g>
    </g>
</svg>