<?xml version="1.0" encoding="UTF-8"?>
<svg viewBox="0.21 0.71 6.21 6.21" version="1.1" xmlns="http://www.w3.org/2000/svg" xmlns:xlink="http://www.w3.org/1999/xlink">
    <title>line-2-2</title>
    <g id="Page-1" stroke="none" stroke-width="1" fill="none" fill-rule="evenodd">
        <g id="best" transform="translate(-414.000000, -601.000000)" fill="#4AAF4F" fill-rule="nonzero">
            <g id="viewport-20210404113105293" transform="translate(0.026131, 0.311539)">
                <path d="M417.294766,607.60631 C415.600598,607.60631 414.188791,606.229798 414.188791,604.500335 C414.188791,602.770872 415.565303,601.39436 417.294766,601.39436 C419.024229,601.39436 420.400741,602.770872 420.400741,604.500335 C420.400741,606.229798 418.988934,607.60631 417.294766,607.60631 Z M418.283031,606.018027 L418.459507,605.4886 L417.012405,605.4886 L417.012405,605.453304 L417.541832,604.923877 C418.07126,604.429745 418.318326,604.112088 418.318326,603.688546 C418.318326,603.194414 417.930079,602.770872 417.224176,602.770872 C416.800634,602.770872 416.341797,602.982643 416.09473,603.229709 L416.447682,603.617956 C416.659453,603.406185 416.941814,603.300299 417.153585,603.300299 C417.435947,603.300299 417.683013,603.476775 417.683013,603.759136 C417.683013,603.970907 417.577127,604.147383 416.97711,604.747401 L416.165321,605.55919 L416.165321,605.982732 L418.283031,606.018027 L418.283031,606.018027 Z" id="line-2-2"></path>
            </g>
        </g>
    </g>
</svg>