<?xml version="1.0" encoding="UTF-8"?>
<svg viewBox="0.23 0.71 6.21 6.21" version="1.1" xmlns="http://www.w3.org/2000/svg" xmlns:xlink="http://www.w3.org/1999/xlink">
    <title>line-3-1</title>
    <g id="Page-1" stroke="none" stroke-width="1" fill="none" fill-rule="evenodd">
        <g id="best" transform="translate(-58.000000, -47.000000)" fill="#0072BA" fill-rule="nonzero">
            <g id="viewport-20210404113105293" transform="translate(0.026131, 0.311539)">
                <path d="M61.3077061,53.6133595 C59.613538,53.6133595 58.2017313,52.236848 58.2017313,50.5073848 C58.2017313,48.8132167 59.5782429,47.40141 61.3077061,47.40141 C63.0371693,47.40141 64.4136808,48.7779216 64.4136808,50.5073848 C64.4136808,52.2721432 63.0018741,53.6133595 61.3077061,53.6133595 Z M60.1429655,51.6721253 C60.4253269,51.9544867 60.8488689,52.1309625 61.2724109,52.1309625 C61.9077239,52.1309625 62.4724466,51.6721253 62.4724466,51.0721075 C62.4724466,50.54268 62.0489046,50.1544331 61.5900674,50.0838428 L62.4018563,49.2720539 L62.4018563,48.8838071 L60.3547365,48.8838071 L60.3547365,49.4132346 L61.6253626,49.4132346 L60.8841641,50.1897283 L60.8841641,50.6132703 C60.9547544,50.5779751 61.0606399,50.5779751 61.2018206,50.5779751 C61.5194771,50.5779751 61.8724287,50.7191558 61.8724287,51.0721075 C61.8724287,51.3544688 61.6253626,51.5662398 61.2371157,51.5662398 C60.9900496,51.5662398 60.7429834,51.4956495 60.5312124,51.2838785 L60.1429655,51.6721253 Z" id="line-3-1"></path>
            </g>
        </g>
    </g>
</svg>