<?xml version="1.0" encoding="UTF-8"?>
<svg viewBox="0.55 0.21 6.21 6.21" version="1.1" xmlns="http://www.w3.org/2000/svg" xmlns:xlink="http://www.w3.org/1999/xlink">
    <title>line-4-1</title>
    <g id="Page-1" stroke="none" stroke-width="1" fill="none" fill-rule="evenodd">
        <g id="best" transform="translate(-46.000000, -306.000000)" fill="#1EBCEF" fill-rule="nonzero">
            <g id="viewport-20210404113105293" transform="translate(0.026131, 0.311539)">
                <path d="M49.6250056,312.115167 C47.9308376,312.115167 46.5190309,310.738655 46.5190309,309.009192 C46.5190309,307.279729 47.8955424,305.903217 49.6250056,305.903217 C51.3544688,305.903217 52.7309803,307.279729 52.7309803,309.009192 C52.7309803,310.70336 51.3191736,312.115167 49.6250056,312.115167 Z M49.2367588,307.420909 L48.4249699,309.432734 L48.4249699,309.856276 L49.8720718,309.856276 L49.8720718,310.562179 L50.4720896,310.562179 L50.4720896,309.856276 L50.7897461,309.856276 L50.966222,309.326849 L50.5073848,309.326849 L50.5073848,308.51506 L49.9073669,308.51506 L49.9073669,309.326849 L49.0955781,309.326849 L49.0955781,309.326849 L49.9073669,307.385614 L49.2367588,307.420909 L49.2367588,307.420909 L49.2367588,307.420909 Z" id="line-4-1"></path>
            </g>
        </g>
    </g>
</svg>