<?xml version="1.0" encoding="UTF-8"?>
<svg viewBox="0.19 0.04 6.21 6.21" version="1.1" xmlns="http://www.w3.org/2000/svg" xmlns:xlink="http://www.w3.org/1999/xlink">
    <title>line-5-2</title>
    <g id="Page-1" stroke="none" stroke-width="1" fill="none" fill-rule="evenodd">
        <g id="best" transform="translate(-362.000000, -390.000000)" fill="#915133" fill-rule="nonzero">
            <g id="viewport-20210404113105293" transform="translate(0.026131, 0.311539)">
                <path d="M365.269689,395.94119 C363.575521,395.94119 362.163714,394.564678 362.163714,392.835215 C362.163714,391.105752 363.540226,389.72924 365.269689,389.72924 C366.999152,389.72924 368.375664,391.105752 368.375664,392.835215 C368.340369,394.599973 366.963857,395.94119 365.269689,395.94119 Z M363.999063,394.141136 C364.281424,394.458793 364.704966,394.599973 365.199099,394.599973 C365.975592,394.599973 366.469725,394.070546 366.469725,393.435233 C366.469725,392.729329 365.905002,392.341083 365.340279,392.341083 C365.163804,392.341083 364.916737,392.376378 364.775557,392.482263 L364.775557,392.482263 L364.810852,391.70577 L366.222659,391.70577 L366.399134,391.176342 L364.281424,391.176342 L364.175539,393.046986 L364.634376,393.082281 C364.810852,392.941101 364.987328,392.905805 365.163804,392.905805 C365.55205,392.905805 365.799117,393.152872 365.799117,393.435233 C365.799117,393.788185 365.516755,393.999956 365.128508,393.999956 C364.881442,393.999956 364.599081,393.89407 364.352015,393.682299 L363.999063,394.141136 Z" id="line-5-2"></path>
            </g>
        </g>
    </g>
</svg>