<?xml version="1.0" encoding="UTF-8"?>
<svg viewBox="0.55 0.54 6.21 6.21" version="1.1" xmlns="http://www.w3.org/2000/svg" xmlns:xlink="http://www.w3.org/1999/xlink">
    <title>line-6-1</title>
    <g id="Page-1" stroke="none" stroke-width="1" fill="none" fill-rule="evenodd">
        <g id="best" transform="translate(-361.000000, -47.000000)" fill="#F07E23" fill-rule="nonzero">
            <g id="viewport-20210404113105293" transform="translate(0.026131, 0.311539)">
                <path d="M364.634376,53.4368837 C362.940208,53.4368837 361.528401,52.0603722 361.528401,50.3309089 C361.528401,48.6014457 362.904913,47.2249342 364.634376,47.2249342 C366.328544,47.2249342 367.740351,48.6014457 367.740351,50.3309089 C367.705056,52.0956673 366.328544,53.4368837 364.634376,53.4368837 Z M364.634376,51.9897818 C365.340279,51.9897818 365.834412,51.4603543 365.834412,50.8250413 C365.834412,50.1544331 365.304984,49.7661863 364.810852,49.7661863 C364.669671,49.7661863 364.493195,49.8014814 364.352015,49.8720718 L364.352015,49.8720718 L365.304984,48.7779216 L364.634376,48.7426264 L364.175539,49.3073491 C363.681407,49.9426621 363.469636,50.2956138 363.469636,50.7897461 C363.43434,51.389764 363.857882,51.9897818 364.634376,51.9897818 Z M364.634376,51.4956495 C364.31672,51.4956495 364.069653,51.2485833 364.069653,50.9309268 C364.069653,50.6132703 364.31672,50.3309089 364.634376,50.3309089 C364.952033,50.3309089 365.199099,50.6132703 365.199099,50.9309268 C365.234394,51.2132881 364.987328,51.4956495 364.634376,51.4956495 Z" id="line-6-1"></path>
            </g>
        </g>
    </g>
</svg>