<?xml version="1.0" encoding="UTF-8"?>
<svg viewBox="0.64 -0.01 6.21 6.21" version="1.1" xmlns="http://www.w3.org/2000/svg" xmlns:xlink="http://www.w3.org/1999/xlink">
    <g id="Page-1" stroke="none" stroke-width="1" fill="none" fill-rule="evenodd">
        <g id="best" transform="translate(-510.000000, -238.000000)" fill-rule="nonzero">
            <g id="viewport-20210404113105293" transform="translate(0.026131, 0.311539)">
                <g id="Group-2" transform="translate(510.615189, 237.677658)">
                    <circle id="line8-1b" fill="#1D1D1B" cx="3.14126991" cy="3.17656508" r="2.68243273"></circle>
                    <path d="M3.10597475,6.21194949 C1.4118067,6.21194949 6.1284311e-14,4.83543796 6.1284311e-14,3.10597475 C6.1284311e-14,1.37651154 1.37651154,6.1284311e-14 3.10597475,6.1284311e-14 C4.80014279,6.1284311e-14 6.21194949,1.37651154 6.21194949,3.10597475 C6.21194949,4.83543796 4.80014279,6.21194949 3.10597475,6.21194949 Z M3.10597475,1.48239704 C2.40007139,1.48239704 1.97652938,1.90593905 1.97652938,2.36477623 C1.97652938,2.64713757 2.15300522,2.92949891 2.43536656,3.03538441 L2.43536656,3.03538441 C2.15300522,3.17656508 1.90593905,3.45892642 1.90593905,3.77658293 C1.90593905,4.34130561 2.40007139,4.72955245 3.10597475,4.72955245 C3.8118781,4.72955245 4.30601044,4.34130561 4.30601044,3.77658293 C4.30601044,3.45892642 4.05894427,3.14126991 3.77658293,3.03538441 L3.77658293,3.03538441 C4.05894427,2.89420374 4.23542011,2.64713757 4.23542011,2.36477623 C4.27071528,1.90593905 3.84717326,1.48239704 3.10597475,1.48239704 Z M3.10597475,3.35304092 C3.45892642,3.35304092 3.70599259,3.56481192 3.70599259,3.8118781 C3.70599259,4.05894427 3.45892642,4.23542011 3.10597475,4.23542011 C2.7177279,4.23542011 2.5059569,3.98835393 2.5059569,3.8118781 C2.5059569,3.56481192 2.7177279,3.35304092 3.10597475,3.35304092 Z M3.10597475,2.82361341 C2.75302307,2.82361341 2.57654723,2.64713757 2.57654723,2.40007139 C2.57654723,2.18830039 2.75302307,1.97652938 3.10597475,1.97652938 C3.45892642,1.97652938 3.63540226,2.18830039 3.63540226,2.40007139 C3.67069743,2.64713757 3.45892642,2.82361341 3.10597475,2.82361341 Z" id="line8-1" fill="#FFCD1C"></path>
                </g>
            </g>
        </g>
    </g>
</svg>