<?xml version="1.0" encoding="UTF-8"?>
<svg viewBox="0.66 0.91 5.44 5.44" version="1.1" xmlns="http://www.w3.org/2000/svg" xmlns:xlink="http://www.w3.org/1999/xlink">
    <title>Group 2</title>
    <g id="Page-1" stroke="none" stroke-width="1" fill="none" fill-rule="evenodd">
        <g id="best" transform="translate(-108.000000, -581.000000)" fill-rule="nonzero">
            <g id="viewport-20210404113105293" transform="translate(0.026131, 0.311539)">
                <g id="Group-2" transform="translate(108.638526, 581.593771)">
                    <rect id="line8A-2b" fill="#000000" x="0.670608184" y="1.12944536" width="4.12953461" height="3.38833609"></rect>
                    <path d="M5.43545581,2.7177279 C5.43545581,4.20012494 4.23542011,5.43545581 2.7177279,5.43545581 C1.23533086,5.43545581 1.50990331e-14,4.23542011 1.50990331e-14,2.7177279 C1.50990331e-14,1.23533086 1.2000357,5.19584376e-14 2.7177279,5.19584376e-14 C4.23542011,5.19584376e-14 5.43545581,1.2000357 5.43545581,2.7177279 Z M2.57654723,3.14126991 C2.57654723,2.89420374 2.40007139,2.64713757 2.18830039,2.57654723 L2.18830039,2.57654723 C2.43536656,2.47066173 2.5059569,2.25889072 2.5059569,2.04711972 C2.5059569,1.69416804 2.18830039,1.37651154 1.65887288,1.37651154 C1.12944536,1.37651154 0.811788854,1.69416804 0.811788854,2.04711972 C0.811788854,2.25889072 0.952969524,2.47066173 1.12944536,2.57654723 L1.12944536,2.57654723 C0.917674357,2.64713757 0.741198519,2.89420374 0.741198519,3.14126991 C0.741198519,3.56481192 1.09415019,3.84717326 1.65887288,3.84717326 C2.22359556,3.84717326 2.57654723,3.60010709 2.57654723,3.14126991 Z M2.11771005,3.14126991 C2.11771005,3.28245058 1.97652938,3.45892642 1.69416804,3.45892642 C1.4118067,3.45892642 1.27062603,3.28245058 1.27062603,3.14126991 C1.27062603,2.96479408 1.4118067,2.82361341 1.69416804,2.82361341 C1.97652938,2.82361341 2.11771005,3.00008924 2.11771005,3.14126991 Z M1.3059212,2.11771005 C1.3059212,1.97652938 1.44710187,1.80005355 1.69416804,1.80005355 C1.94123422,1.80005355 2.11771005,1.94123422 2.11771005,2.11771005 C2.11771005,2.29418589 1.97652938,2.43536656 1.69416804,2.43536656 C1.4118067,2.43536656 1.3059212,2.25889072 1.3059212,2.11771005 Z M4.83543796,3.8118781 L3.9177636,1.44710187 L3.52951676,1.44710187 L2.6118424,3.8118781 L3.10597475,3.8118781 L3.28245058,3.31774575 L4.20012494,3.31774575 L4.37660078,3.8118781 L4.83543796,3.8118781 Z M3.70599259,2.04711972 L4.0236491,2.92949891 L3.38833609,2.92949891 L3.70599259,2.04711972 L3.70599259,2.04711972 Z" id="line8A-2" fill="#FFCD1C"></path>
                </g>
            </g>
        </g>
    </g>
</svg>