<?xml version="1.0" encoding="UTF-8"?>
<svg viewBox="0.62 0.54 6.21 6.21" version="1.1" xmlns="http://www.w3.org/2000/svg" xmlns:xlink="http://www.w3.org/1999/xlink">
    <title>line-9-1</title>
    <g id="Page-1" stroke="none" stroke-width="1" fill="none" fill-rule="evenodd">
        <g id="best" transform="translate(-310.000000, -47.000000)" fill="#ADACAC" fill-rule="nonzero">
            <g id="viewport-20210404113105293" transform="translate(0.026131, 0.311539)">
                <path d="M313.703449,53.4368837 C312.009281,53.4368837 310.597475,52.0603722 310.597475,50.3309089 C310.597475,48.6014457 311.973986,47.2249342 313.703449,47.2249342 C315.397617,47.2249342 316.809424,48.6014457 316.809424,50.3309089 C316.809424,52.025077 315.432913,53.4368837 313.703449,53.4368837 Z M313.703449,48.7426264 C312.997546,48.7426264 312.503414,49.2367588 312.503414,49.9073669 C312.503414,50.5779751 313.032841,50.966222 313.526973,50.966222 C313.668154,50.966222 313.84463,50.9309268 313.985811,50.8250413 L313.985811,50.8603365 L313.032841,51.9897818 L313.703449,52.0603722 L314.162286,51.4603543 C314.656419,50.8250413 314.86819,50.4720896 314.86819,49.9779573 C314.903485,49.3426443 314.479943,48.7426264 313.703449,48.7426264 Z M313.703449,49.2720539 C314.021106,49.2720539 314.268172,49.5191201 314.268172,49.8720718 C314.268172,50.1897283 314.021106,50.4720896 313.703449,50.4720896 C313.385793,50.4720896 313.138727,50.1897283 313.138727,49.8720718 C313.138727,49.4838249 313.350498,49.2720539 313.703449,49.2720539 Z" id="line-9-1"></path>
            </g>
        </g>
    </g>
</svg>