<?xml version="1.0" encoding="UTF-8"?>
<svg width="13px" height="8px" viewBox="0 0 13 8" version="1.1" xmlns="http://www.w3.org/2000/svg" xmlns:xlink="http://www.w3.org/1999/xlink">
    <title>line-D1-1</title>
    <g id="Page-1" stroke="none" stroke-width="1" fill="none" fill-rule="evenodd">
        <g id="best" transform="translate(-104.000000, -9.000000)" fill-rule="nonzero">
            <g id="viewport-20210404113105293" transform="translate(0.026131, 0.311539)">
                <g id="line-D1-1" transform="translate(104.120744, 9.529695)">
                    <path d="M12.212128,0.0352951676 L2.29418589,0.0352951676 C2.08241489,0.0352951676 1.94123422,0.14118067 1.87064388,0.352951676 C1.4118067,1.76475838 0.494132346,4.55307662 0.0352951676,5.96488332 C-0.0352951676,6.14135916 0.0705903351,6.28253983 0.247066173,6.28253983 L10.1650083,6.28253983 C10.3767793,6.28253983 10.5179599,6.17665432 10.5885503,5.96488332 C11.0473874,4.55307662 11.9650618,1.76475838 12.423899,0.352951676 C12.4944893,0.176475838 12.3886038,0.0352951676 12.212128,0.0352951676 Z M4.76484762,5.01191379 L3.49422159,5.01191379 L3.49422159,1.90593905 L2.85890857,1.90593905 L3.07067958,1.27062603 L3.49422159,1.27062603 L4.76484762,1.27062603 C5.92958815,1.27062603 6.67078667,2.04711972 6.67078667,3.14126991 C6.70608184,4.23542011 5.96488332,4.97661863 4.76484762,5.01191379 Z M9.38851457,5.01191379 L7.34139485,5.01191379 L7.34139485,4.37660078 L8.08259337,4.37660078 L8.08259337,1.90593905 L7.41198519,1.90593905 L7.41198519,1.27062603 L8.78849672,1.27062603 L8.78849672,4.37660078 L9.60028558,4.37660078 L9.38851457,5.01191379 Z" id="Shape" fill="#F7A600"></path>
                    <path d="M4.76484762,1.87064388 L4.20012494,1.87064388 L4.20012494,4.37660078 L4.76484762,4.37660078 C5.43545581,4.37660078 5.96488332,3.95305877 5.96488332,3.14126991 C5.96488332,2.29418589 5.43545581,1.87064388 4.76484762,1.87064388 Z" id="Path" fill="#F7A600"></path>
                    <path d="M4.76484762,1.27062603 L3.49422159,1.27062603 L3.07067958,1.27062603 L2.85890857,1.90593905 L3.49422159,1.90593905 L3.49422159,5.01191379 L4.76484762,5.01191379 C5.92958815,5.01191379 6.67078667,4.23542011 6.67078667,3.14126991 C6.70608184,2.04711972 5.96488332,1.27062603 4.76484762,1.27062603 Z M4.76484762,4.37660078 L4.20012494,4.37660078 L4.20012494,1.87064388 L4.76484762,1.87064388 C5.43545581,1.87064388 5.96488332,2.29418589 5.96488332,3.10597475 C5.96488332,3.95305877 5.43545581,4.37660078 4.76484762,4.37660078 Z" id="Shape" fill="#FFFFFF"></path>
                    <polygon id="Path" fill="#FFFFFF" points="8.78849672 1.27062603 7.41198519 1.27062603 7.41198519 1.87064388 8.11788854 1.87064388 8.11788854 4.37660078 7.37669002 4.37660078 7.37669002 5.01191379 9.38851457 5.01191379 9.60028558 4.37660078 8.78849672 4.37660078"></polygon>
                </g>
            </g>
        </g>
    </g>
</svg>