<?xml version="1.0" encoding="UTF-8"?>
<svg width="13px" height="7px" viewBox="0 0 13 7" version="1.1" xmlns="http://www.w3.org/2000/svg" xmlns:xlink="http://www.w3.org/1999/xlink">
    <title>line-D2-1</title>
    <g id="Page-1" stroke="none" stroke-width="1" fill="none" fill-rule="evenodd">
        <g id="best" transform="translate(-5.000000, -4.000000)" fill-rule="nonzero">
            <g id="viewport-20210404113105293" transform="translate(0.026131, 0.311539)">
                <g id="line-D2-1" transform="translate(4.941323, 3.529517)">
                    <path d="M4.58837178,2.15300522 L4.0236491,2.15300522 L4.0236491,4.65896212 L4.58837178,4.65896212 C5.25897997,4.65896212 5.78840748,4.23542011 5.78840748,3.42363125 C5.78840748,2.57654723 5.29427513,2.15300522 4.58837178,2.15300522 Z" id="Path" fill="#E94282"></path>
                    <path d="M12.3180135,0.317656508 L2.36477623,0.317656508 C2.15300522,0.317656508 2.01182455,0.423542011 1.94123422,0.635313016 C1.48239704,2.04711972 0.564722681,4.83543796 0.105885503,6.24724466 C0.0352951676,6.4237205 0.14118067,6.56490117 0.317656508,6.56490117 L10.2355986,6.56490117 C10.4473696,6.56490117 10.5885503,6.45901566 10.6591406,6.24724466 C11.1179778,4.83543796 12.0356521,2.04711972 12.4944893,0.635313016 C12.5650797,0.458837178 12.4591942,0.317656508 12.3180135,0.317656508 Z M4.62366695,5.29427513 L3.35304092,5.29427513 L3.35304092,2.18830039 L2.7177279,2.18830039 L2.92949891,1.55298737 L3.35304092,1.55298737 L4.62366695,1.55298737 C5.78840748,1.55298737 6.529606,2.32948106 6.529606,3.42363125 C6.529606,4.51778145 5.78840748,5.25897997 4.62366695,5.29427513 Z M9.74146625,5.29427513 L7.30609969,5.29427513 L7.30609969,4.76484762 L8.25906921,3.8118781 C8.96497256,3.14126991 9.10615323,2.92949891 9.10615323,2.64713757 C9.10615323,2.32948106 8.82379189,2.11771005 8.50613538,2.11771005 C8.22377404,2.11771005 7.87082237,2.29418589 7.65905136,2.5059569 L7.20021418,2.04711972 C7.51787069,1.72946321 8.0472982,1.48239704 8.54143055,1.48239704 C9.38851457,1.48239704 9.84735175,1.97652938 9.84735175,2.57654723 C9.84735175,3.07067958 9.60028558,3.42363125 8.92967739,4.0236491 L8.29436438,4.62366695 L8.29436438,4.62366695 L9.98853242,4.62366695 L9.74146625,5.29427513 Z" id="Shape" fill="#E94282"></path>
                    <path d="M4.62366695,1.55298737 L3.35304092,1.55298737 L2.92949891,1.55298737 L2.7177279,2.18830039 L3.35304092,2.18830039 L3.35304092,5.29427513 L4.62366695,5.29427513 C5.78840748,5.29427513 6.529606,4.51778145 6.529606,3.42363125 C6.529606,2.32948106 5.78840748,1.55298737 4.62366695,1.55298737 Z M4.58837178,4.65896212 L4.0236491,4.65896212 L4.0236491,2.15300522 L4.58837178,2.15300522 C5.25897997,2.15300522 5.78840748,2.57654723 5.78840748,3.38833609 C5.78840748,4.23542011 5.29427513,4.65896212 4.58837178,4.65896212 Z" id="Shape" fill="#FFFFFF"></path>
                    <path d="M8.22377404,4.65896212 L8.85908706,4.05894427 C9.49440008,3.45892642 9.77676142,3.10597475 9.77676142,2.6118424 C9.77676142,2.04711972 9.31792424,1.51769221 8.47084022,1.51769221 C7.97670787,1.51769221 7.44728036,1.76475838 7.12962385,2.08241489 L7.58846103,2.54125206 C7.8355272,2.32948106 8.15318371,2.15300522 8.43554505,2.15300522 C8.78849672,2.15300522 9.0355629,2.36477623 9.0355629,2.68243273 C9.0355629,2.96479408 8.89438223,3.17656508 8.18847888,3.84717326 L7.23550935,4.80014279 L7.23550935,5.29427513 L9.67087591,5.29427513 L9.88264692,4.69425729 L8.22377404,4.65896212 L8.22377404,4.65896212 L8.22377404,4.65896212 Z" id="Path" fill="#FFFFFF"></path>
                </g>
            </g>
        </g>
    </g>
</svg>