<svg width="24" height="24" viewBox="0 0 24 24" fill="none" xmlns="http://www.w3.org/2000/svg">
<path d="M3.00002 22.0003H7.00002C7.13162 22.001 7.26209 21.9758 7.38392 21.9261C7.50576 21.8763 7.61658 21.803 7.71002 21.7103L19.71 9.71028C19.8037 9.61731 19.8781 9.50671 19.9289 9.38485C19.9797 9.26299 20.0058 9.13229 20.0058 9.00028C20.0058 8.86826 19.9797 8.73756 19.9289 8.6157C19.8781 8.49384 19.8037 8.38324 19.71 8.29028L15.71 4.29027C15.6171 4.19655 15.5065 4.12215 15.3846 4.07138C15.2627 4.02061 15.132 3.99448 15 3.99448C14.868 3.99448 14.7373 4.02061 14.6154 4.07138C14.4936 4.12215 14.383 4.19655 14.29 4.29027L2.29002 16.2903C2.19734 16.3837 2.12401 16.4945 2.07425 16.6164C2.02448 16.7382 1.99926 16.8687 2.00002 17.0003V21.0003C2.00002 21.2655 2.10537 21.5199 2.29291 21.7074C2.48045 21.8949 2.7348 22.0003 3.00002 22.0003V22.0003ZM4.00002 17.4103L15 6.41028L17.59 9.00028L6.59002 20.0003H4.00002V17.4103Z" fill="#FFBB54"/>
<path d="M17.7102 2.28996C17.6169 2.19672 17.5063 2.12276 17.3844 2.0723C17.2626 2.02184 17.132 1.99587 17.0002 1.99587C16.7339 1.99587 16.4785 2.10166 16.2902 2.28996C16.1019 2.47826 15.9961 2.73366 15.9961 2.99996C15.9961 3.26626 16.1019 3.52166 16.2902 3.70996L20.2902 7.70996C20.3831 7.80369 20.4937 7.87809 20.6156 7.92885C20.7375 7.97962 20.8682 8.00576 21.0002 8.00576C21.1322 8.00576 21.2629 7.97962 21.3848 7.92885C21.5066 7.87809 21.6172 7.80369 21.7102 7.70996C21.8039 7.617 21.8783 7.5064 21.9291 7.38454C21.9798 7.26268 22.006 7.13197 22.006 6.99996C22.006 6.86795 21.9798 6.73724 21.9291 6.61539C21.8783 6.49353 21.8039 6.38292 21.7102 6.28996L17.7102 2.28996Z" fill="#464255"/>
</svg>
