<svg width="50" height="50" viewBox="0 0 50 50" fill="none" xmlns="http://www.w3.org/2000/svg">
<path d="M6.24938 45.8336H14.5827C14.8569 45.8352 15.1287 45.7827 15.3825 45.679C15.6363 45.5753 15.8672 45.4225 16.0619 45.2295L41.0619 20.2294C41.2571 20.0358 41.4121 19.8054 41.5179 19.5515C41.6237 19.2976 41.6781 19.0253 41.6781 18.7503C41.6781 18.4753 41.6237 18.203 41.5179 17.9491C41.4121 17.6952 41.2571 17.4648 41.0619 17.2711L32.7285 8.93778C32.5349 8.74251 32.3045 8.58752 32.0506 8.48176C31.7967 8.37599 31.5244 8.32153 31.2494 8.32153C30.9744 8.32153 30.7021 8.37599 30.4482 8.48176C30.1943 8.58752 29.9639 8.74251 29.7702 8.93778L4.77022 33.9378C4.57713 34.1325 4.42437 34.3633 4.32069 34.6171C4.21702 34.871 4.16447 35.1428 4.16605 35.417V43.7503C4.16605 44.3028 4.38554 44.8327 4.77624 45.2234C5.16695 45.6141 5.69685 45.8336 6.24938 45.8336ZM8.33272 36.2711L31.2494 13.3544L36.6452 18.7503L13.7285 41.667H8.33272V36.2711Z" fill="#464255"/>
<path d="M36.8952 4.77089C36.701 4.57665 36.4704 4.42256 36.2166 4.31744C35.9628 4.21231 35.6908 4.1582 35.4161 4.1582C34.8613 4.1582 34.3292 4.37859 33.9369 4.77089C33.5446 5.16319 33.3242 5.69527 33.3242 6.25006C33.3242 6.80486 33.5446 7.33693 33.9369 7.72923L42.2702 16.0626C42.4639 16.2578 42.6943 16.4128 42.9482 16.5186C43.2021 16.6244 43.4744 16.6788 43.7494 16.6788C44.0244 16.6788 44.2967 16.6244 44.5506 16.5186C44.8045 16.4128 45.0349 16.2578 45.2286 16.0626C45.4238 15.8689 45.5788 15.6385 45.6846 15.3846C45.7904 15.1307 45.8448 14.8584 45.8448 14.5834C45.8448 14.3084 45.7904 14.0361 45.6846 13.7822C45.5788 13.5283 45.4238 13.2979 45.2286 13.1042L36.8952 4.77089Z" fill="#464255"/>
</svg>
