<svg width="68" height="68" viewBox="0 0 68 68" fill="none" xmlns="http://www.w3.org/2000/svg">
<rect width="68" height="68" rx="24" fill="#FDFDFD"/>
<path d="M33.9997 19.3333C31.0989 19.3333 28.2632 20.1935 25.8513 21.8051C23.4394 23.4167 21.5595 25.7073 20.4494 28.3873C19.3394 31.0673 19.0489 34.0163 19.6148 36.8613C20.1807 39.7064 21.5776 42.3197 23.6288 44.3709C25.68 46.4221 28.2933 47.8189 31.1384 48.3849C33.9834 48.9508 36.9324 48.6603 39.6124 47.5502C42.2924 46.4402 44.583 44.5603 46.1946 42.1484C47.8062 39.7365 48.6664 36.9008 48.6664 34C48.6618 30.1116 47.1151 26.3837 44.3655 23.6342C41.616 20.8846 37.8881 19.3379 33.9997 19.3333V19.3333ZM33.9997 46C31.6263 46 29.3062 45.2962 27.3328 43.9776C25.3594 42.6591 23.8214 40.7849 22.9131 38.5922C22.0049 36.3995 21.7672 33.9867 22.2303 31.6589C22.6933 29.3312 23.8362 27.193 25.5144 25.5147C27.1926 23.8365 29.3308 22.6936 31.6586 22.2306C33.9864 21.7676 36.3992 22.0052 38.5919 22.9135C40.7846 23.8217 42.6587 25.3598 43.9773 27.3332C45.2959 29.3066 45.9997 31.6266 45.9997 34C45.9962 37.1815 44.7307 40.2317 42.4811 42.4814C40.2314 44.7311 37.1812 45.9965 33.9997 46V46Z" fill="#464255"/>
<path d="M39.7648 29.684L32.7061 36.1546L29.6088 33.0573C29.4858 32.93 29.3387 32.8284 29.176 32.7585C29.0133 32.6886 28.8384 32.6518 28.6613 32.6503C28.4843 32.6488 28.3087 32.6825 28.1449 32.7495C27.981 32.8166 27.8321 32.9156 27.7069 33.0408C27.5817 33.166 27.4827 33.3148 27.4157 33.4787C27.3487 33.6426 27.3149 33.8181 27.3165 33.9952C27.318 34.1722 27.3548 34.3472 27.4247 34.5098C27.4945 34.6725 27.5961 34.8196 27.7235 34.9426L31.7235 38.9426C31.9664 39.1857 32.2939 39.3255 32.6374 39.3329C32.981 39.3404 33.3142 39.2149 33.5675 38.9826L41.5675 31.6493C41.8281 31.4103 41.9831 31.0775 41.9983 30.7241C42.0136 30.3708 41.8878 30.0259 41.6488 29.7653C41.4097 29.5047 41.077 29.3497 40.7236 29.3344C40.3703 29.3192 40.0254 29.4449 39.7648 29.684V29.684Z" fill="#464255"/>
</svg>
