<svg width="68" height="68" viewBox="0 0 68 68" fill="none" xmlns="http://www.w3.org/2000/svg">
    <rect width="68" height="68" rx="24" fill="#FDFDFD"/>
    <path d="M36.667 21.9998C36.4915 21.9987 36.3176 22.0324 36.1551 22.0987C35.9927 22.1651 35.8449 22.2629 35.7203 22.3864L33.4537 24.6664H22.0003C21.6467 24.6664 21.3076 24.8069 21.0575 25.057C20.8075 25.307 20.667 25.6461 20.667 25.9998V44.6664C20.667 45.0201 20.8075 45.3592 21.0575 45.6092C21.3076 45.8593 21.6467 45.9998 22.0003 45.9998H46.0003C46.354 45.9998 46.6931 45.8593 46.9431 45.6092C47.1932 45.3592 47.3337 45.0201 47.3337 44.6664V23.3331C47.3337 22.9795 47.1932 22.6403 46.9431 22.3903C46.6931 22.1402 46.354 21.9998 46.0003 21.9998H36.667ZM44.667 43.3331H23.3337V27.3331H34.0003C34.1758 27.3341 34.3498 27.3005 34.5122 27.2341C34.6747 27.1678 34.8224 27.07 34.947 26.9464L37.2137 24.6664H44.667V43.3331Z" fill="#464255"/>
</svg>
