<svg width="50" height="50" viewBox="0 0 50 50" fill="none" xmlns="http://www.w3.org/2000/svg">
<path d="M6.24935 27.0832H38.7285L27.6869 38.1041C27.4916 38.2977 27.3366 38.5282 27.2308 38.782C27.1251 39.0359 27.0706 39.3082 27.0706 39.5832C27.0706 39.8583 27.1251 40.1306 27.2308 40.3844C27.3366 40.6383 27.4916 40.8687 27.6869 41.0624C27.8805 41.2577 28.1109 41.4127 28.3648 41.5184C28.6187 41.6242 28.891 41.6786 29.166 41.6786C29.441 41.6786 29.7133 41.6242 29.9672 41.5184C30.2211 41.4127 30.4515 41.2577 30.6452 41.0624L45.2285 26.4791C45.4238 26.2854 45.5788 26.055 45.6845 25.8011C45.7903 25.5472 45.8448 25.2749 45.8448 24.9999C45.8448 24.7249 45.7903 24.4526 45.6845 24.1987C45.5788 23.9448 45.4238 23.7144 45.2285 23.5207L30.6452 8.9374C30.4509 8.74315 30.2203 8.58907 29.9665 8.48394C29.7127 8.37882 29.4407 8.32471 29.166 8.32471C28.6112 8.32471 28.0792 8.5451 27.6869 8.9374C27.4926 9.13164 27.3385 9.36225 27.2334 9.61605C27.1283 9.86984 27.0742 10.1419 27.0742 10.4166C27.0742 10.9714 27.2946 11.5034 27.6869 11.8957L38.7285 22.9166H6.24935C5.69681 22.9166 5.16691 23.1361 4.77621 23.5268C4.38551 23.9175 4.16602 24.4474 4.16602 24.9999C4.16602 25.5524 4.38551 26.0823 4.77621 26.473C5.16691 26.8637 5.69681 27.0832 6.24935 27.0832Z" fill="#464255"/>
</svg>
