<svg width="68" height="68" viewBox="0 0 68 68" fill="none" xmlns="http://www.w3.org/2000/svg">
<rect width="68" height="68" rx="24" fill="#FDFDFD"/>
<path d="M39.1064 21.2667C38.9856 21.0832 38.8214 20.9325 38.6284 20.8278C38.4353 20.7232 38.2194 20.6678 37.9998 20.6667H21.9998C21.7684 20.6667 21.541 20.727 21.3399 20.8415C21.1389 20.9561 20.9711 21.1209 20.8531 21.32C20.7361 21.5227 20.6745 21.7526 20.6745 21.9867C20.6745 22.2207 20.7361 22.4506 20.8531 22.6533L27.1464 34L20.8398 45.3467C20.7227 45.5493 20.6611 45.7793 20.6611 46.0133C20.6611 46.2474 20.7227 46.4773 20.8398 46.68C20.9589 46.881 21.1288 47.0471 21.3324 47.1618C21.536 47.2765 21.7661 47.3356 21.9998 47.3333H37.9998C38.2194 47.3322 38.4353 47.2768 38.6284 47.1721C38.8214 47.0675 38.9856 46.9167 39.1064 46.7333L47.1064 34.7333C47.2498 34.5156 47.3262 34.2607 47.3262 34C47.3262 33.7393 47.2498 33.4844 47.1064 33.2667L39.1064 21.2667ZM37.2798 44.6667H24.2664L29.8264 34.6533C29.9435 34.4506 30.0051 34.2207 30.0051 33.9867C30.0051 33.7526 29.9435 33.5227 29.8264 33.32L24.2664 23.3333H37.2798L44.3998 34L37.2798 44.6667Z" fill="#464255"/>
</svg>
