<svg width="50" height="50" viewBox="0 0 50 50" fill="none" xmlns="http://www.w3.org/2000/svg">
<path d="M47.6927 2.30908C47.4503 2.06613 47.143 1.89819 46.8076 1.82535C46.4722 1.75251 46.123 1.77786 45.8016 1.89836L4.4552 17.4037C3.70356 17.6827 3.05001 18.1756 2.57517 18.8217C2.10032 19.4677 1.82493 20.2385 1.78297 21.0392C1.74101 21.8399 1.93431 22.6353 2.33903 23.3274C2.74376 24.0195 3.3422 24.578 4.06056 24.9341L18.0641 31.9359L25.0659 45.9394C25.4011 46.6255 25.9232 47.203 26.5721 47.6054C27.2209 48.0079 27.9702 48.219 28.7338 48.2144H28.9606C29.7619 48.1791 30.535 47.9075 31.1823 47.4337C31.8296 46.9599 32.3222 46.3052 32.5981 45.5519L48.1034 4.19836C48.2235 3.87725 48.2487 3.52835 48.1759 3.19333C48.103 2.85831 47.9353 2.55133 47.6927 2.30908ZM29.2534 44.2859C29.2206 44.3881 29.1567 44.4775 29.0706 44.5415C28.9844 44.6056 28.8804 44.6411 28.7731 44.643C28.6676 44.6491 28.5626 44.6239 28.4714 44.5705C28.3802 44.5171 28.3069 44.438 28.2606 44.343L21.5677 30.9502L29.8356 22.6823C30.1608 22.3455 30.3408 21.8944 30.3368 21.4262C30.3327 20.958 30.1449 20.5101 29.8138 20.179C29.4827 19.848 29.0348 19.6602 28.5666 19.6561C28.0984 19.652 27.6474 19.832 27.3106 20.1573L19.0427 28.4252L5.65877 21.7412C5.56176 21.6962 5.48043 21.6233 5.42524 21.5317C5.37005 21.4401 5.34353 21.3341 5.3491 21.2273C5.35467 21.1205 5.39207 21.0178 5.45649 20.9325C5.52091 20.8471 5.60939 20.783 5.71056 20.7484L43.3784 6.62336L29.2534 44.2859Z" fill="#464255"/>
</svg>
