<svg width="68" height="68" viewBox="0 0 68 68" fill="none" xmlns="http://www.w3.org/2000/svg">
<rect width="68" height="68" rx="24" fill="#FDFDFD"/>
<path d="M34.0003 27.3333C33.2003 27.3333 32.667 27.8666 32.667 28.6666V35.3333C32.667 36.1333 33.2003 36.6666 34.0003 36.6666C34.8003 36.6666 35.3337 36.1333 35.3337 35.3333V28.6666C35.3337 27.8666 34.8003 27.3333 34.0003 27.3333Z" fill="#464255"/>
<path d="M34.0003 40.6667C34.7367 40.6667 35.3337 40.0697 35.3337 39.3333C35.3337 38.597 34.7367 38 34.0003 38C33.2639 38 32.667 38.597 32.667 39.3333C32.667 40.0697 33.2639 40.6667 34.0003 40.6667Z" fill="#464255"/>
<path d="M46.1337 27.3333L40.667 21.8666C39.867 21.0666 38.9337 20.6666 37.867 20.6666H30.1337C29.067 20.6666 28.1337 21.0666 27.3337 21.8666L21.867 27.3333C21.067 28.1333 20.667 29.0666 20.667 30.1333V37.8666C20.667 38.9333 21.067 39.8666 21.867 40.6666L27.3337 46.1333C28.1337 46.9333 29.067 47.3333 30.1337 47.3333H37.867C38.9337 47.3333 39.867 46.9333 40.667 46.1333L46.1337 40.6666C46.9337 39.8666 47.3337 38.9333 47.3337 37.8666V30.1333C47.3337 29.0666 46.9337 28.1333 46.1337 27.3333V27.3333ZM44.667 37.8666C44.667 38.2666 44.5337 38.5333 44.267 38.8L38.8003 44.2666C38.5337 44.5333 38.267 44.6666 37.867 44.6666H30.1337C29.7337 44.6666 29.467 44.5333 29.2003 44.2666L23.7337 38.8C23.467 38.5333 23.3337 38.2666 23.3337 37.8666V30.1333C23.3337 29.7333 23.467 29.4666 23.7337 29.2L29.2003 23.7333C29.467 23.4666 29.7337 23.3333 30.1337 23.3333H37.867C38.267 23.3333 38.5337 23.4666 38.8003 23.7333L44.267 29.2C44.5337 29.4666 44.667 29.7333 44.667 30.1333V37.8666Z" fill="#464255"/>
</svg>
